HIERARCHY
ROOT joint_0
{
	OFFSET 0.000000 0.000000 0.000000
	CHANNELS 6 Xposition Yposition Zposition Zrotation Yrotation Xrotation 
	JOINT joint_1
	{
		OFFSET 10.084412 4.114712 95.061035
		CHANNELS 3 Zrotation Yrotation Xrotation
		JOINT joint_2
		{
			OFFSET -1.615463 4.243484 87.329956
			CHANNELS 3 Zrotation Yrotation Xrotation
			JOINT joint_3
			{
				OFFSET -3.579636 4.638191 87.154053
				CHANNELS 3 Zrotation Yrotation Xrotation
				JOINT joint_4
				{
					OFFSET 5.443451 7.217075 123.562988
					CHANNELS 3 Zrotation Yrotation Xrotation
					JOINT joint_5
					{
						OFFSET 21.688065 15.141808 90.458008
						CHANNELS 3 Zrotation Yrotation Xrotation
						End Site
						{
							OFFSET 0.000000 0.000000 0.000000
						}
					}
				}
				JOINT joint_6
				{
					OFFSET 3.611374 -22.863556 70.791992
					CHANNELS 3 Zrotation Yrotation Xrotation
					JOINT joint_7
					{
						OFFSET 3.493607 -153.029137 -12.665039
						CHANNELS 3 Zrotation Yrotation Xrotation
						JOINT joint_8
						{
							OFFSET -14.929443 -32.628616 -254.032959
							CHANNELS 3 Zrotation Yrotation Xrotation
							JOINT joint_9
							{
								OFFSET 11.589401 -3.548126 -242.255005
								CHANNELS 3 Zrotation Yrotation Xrotation
								End Site
								{
									OFFSET 0.000000 0.000000 0.000000
								}
							}
						}
					}
				}
				JOINT joint_10
				{
					OFFSET 2.651962 30.943008 67.690918
					CHANNELS 3 Zrotation Yrotation Xrotation
					JOINT joint_11
					{
						OFFSET -6.172562 150.392159 -30.576904
						CHANNELS 3 Zrotation Yrotation Xrotation
						JOINT joint_12
						{
							OFFSET 15.363358 20.741959 -255.254028
							CHANNELS 3 Zrotation Yrotation Xrotation
							JOINT joint_13
							{
								OFFSET 23.282578 -11.086121 -241.182983
								CHANNELS 3 Zrotation Yrotation Xrotation
								End Site
								{
									OFFSET 0.000000 0.000000 0.000000
								}
							}
						}
					}
				}
			}
		}
	}
	JOINT joint_14
	{
		OFFSET -7.080551 -92.910816 -106.291992
		CHANNELS 3 Zrotation Yrotation Xrotation
		JOINT joint_15
		{
			OFFSET -38.248322 -6.001282 -411.906006
			CHANNELS 3 Zrotation Yrotation Xrotation
			JOINT joint_16
			{
				OFFSET -11.189407 -11.244659 -448.150986
				CHANNELS 3 Zrotation Yrotation Xrotation
				JOINT joint_17
				{
					OFFSET 169.870491 -24.631378 -80.352999
					CHANNELS 3 Zrotation Yrotation Xrotation
					End Site
					{
						OFFSET 0.000000 0.000000 0.000000
					}
				}
			}
		}
	}
	JOINT joint_18
	{
		OFFSET -2.796600 85.817772 -112.273987
		CHANNELS 3 Zrotation Yrotation Xrotation
		JOINT joint_19
		{
			OFFSET -44.395859 -8.174402 -411.255005
			CHANNELS 3 Zrotation Yrotation Xrotation
			JOINT joint_20
			{
				OFFSET -25.617508 -5.555587 -447.666992
				CHANNELS 3 Zrotation Yrotation Xrotation
				JOINT joint_21
				{
					OFFSET 163.870811 53.215703 -78.867000
					CHANNELS 3 Zrotation Yrotation Xrotation
					End Site
					{
						OFFSET 0.000000 0.000000 0.000000
					}
				}
			}
		}
	}
}
MOTION
Frames: 15
Frame Time: 0.016667
556.628418 -87.010941 1066.305054 3.462342 0.461106 1.393855 0.189440 -4.800678 1.807640 -0.135357 0.896952 -0.362564 -0.009917 -0.989623 0.262617 -2.292963 7.432609 4.066244 0.000000 0.000000 0.000000 -5.551499 0.559737 0.752052 0.267682 0.012453 -1.914361 -0.142768 3.230234 -1.975140 0.000000 0.000000 0.000000 1.495312 2.522354 -0.710655 0.410617 2.264702 -1.429855 0.029748 -2.806808 -0.820134 0.000000 0.000000 0.000000 0.458987 -1.577417 -0.460586 0.299159 2.514185 0.604513 0.418101 -1.309289 0.007557 0.000000 0.000000 0.000000 -5.324424 -3.152527 1.177037 -5.213005 -0.513758 -0.527854 -5.105957 1.158038 -2.832025 0.000000 0.000000 0.000000 
556.742493 -87.097328 1066.300049 3.449605 0.467190 1.394687 0.196563 -4.794438 1.815249 -0.128080 0.896087 -0.363690 -0.002683 -0.987704 0.263659 -2.294782 7.437840 4.069289 0.000000 0.000000 0.000000 -5.557499 0.547919 0.764953 0.269211 -0.000279 -1.912706 -0.143203 3.236155 -1.981322 0.000000 0.000000 0.000000 1.479340 2.513856 -0.721673 0.411098 2.260284 -1.423711 0.028909 -2.814856 -0.831669 0.000000 0.000000 0.000000 0.464734 -1.582360 -0.464875 0.303050 2.521620 0.618320 0.422818 -1.318899 0.008387 0.000000 0.000000 0.000000 -5.321558 -3.155140 1.184394 -5.209156 -0.504853 -0.532238 -5.102363 1.155054 -2.829366 0.000000 0.000000 0.000000 
556.870789 -87.181747 1066.290039 3.441649 0.475528 1.395567 0.200605 -4.796313 1.824611 -0.124316 0.895418 -0.365145 0.001133 -0.986962 0.264816 -2.296731 7.440149 4.075169 0.000000 0.000000 0.000000 -5.565354 0.540796 0.779095 0.268707 -0.008362 -1.911522 -0.143794 3.234664 -1.993446 0.000000 0.000000 0.000000 1.469606 2.509618 -0.730209 0.411576 2.258271 -1.428812 0.030040 -2.819941 -0.822136 0.000000 0.000000 0.000000 0.468970 -1.585363 -0.469628 0.305420 2.523111 0.633097 0.425844 -1.327144 0.008618 0.000000 0.000000 0.000000 -5.320450 -3.155448 1.192001 -5.206898 -0.504280 -0.535886 -5.100383 1.153418 -2.827916 0.000000 0.000000 0.000000 
557.013184 -87.265160 1066.279053 3.436154 0.487166 1.396531 0.201031 -4.806834 1.837184 -0.124712 0.894701 -0.369424 0.000948 -0.985962 0.267248 -2.298291 7.441349 4.080805 0.000000 0.000000 0.000000 -5.568897 0.536771 0.795025 0.266702 -0.012944 -1.910907 -0.144571 3.228779 -2.011130 0.000000 0.000000 0.000000 1.470423 2.510219 -0.735471 0.412196 2.258458 -1.442985 0.032378 -2.825473 -0.800410 0.000000 0.000000 0.000000 0.472675 -1.587715 -0.475123 0.307183 2.518270 0.649096 0.428022 -1.332209 0.008909 0.000000 0.000000 0.000000 -5.320287 -3.155122 1.200133 -5.205407 -0.510746 -0.539346 -5.099223 1.154545 -2.827756 0.000000 0.000000 0.000000 
557.160522 -87.349922 1066.265991 3.432657 0.498118 1.397677 0.200387 -4.817841 1.849923 -0.126222 0.894850 -0.373409 -0.000116 -0.987849 0.270741 -2.299585 7.440997 4.086468 0.000000 0.000000 0.000000 -5.572427 0.537318 0.808694 0.263662 -0.012762 -1.908117 -0.145208 3.218848 -2.027168 0.000000 0.000000 0.000000 1.471149 2.512811 -0.744749 0.412415 2.260797 -1.455118 0.034634 -2.824143 -0.777179 0.000000 0.000000 0.000000 0.475528 -1.590591 -0.480549 0.308038 2.517295 0.665123 0.429535 -1.341036 0.008341 0.000000 0.000000 0.000000 -5.320794 -3.154436 1.208517 -5.204472 -0.516362 -0.543630 -5.098649 1.154688 -2.827557 0.000000 0.000000 0.000000 
557.311707 -87.435982 1066.250977 3.430101 0.506687 1.399365 0.199722 -4.828579 1.862924 -0.127744 0.895863 -0.377393 -0.001235 -0.989006 0.272914 -2.300046 7.432197 4.094837 0.000000 0.000000 0.000000 -5.573654 0.543323 0.819922 0.259497 -0.006659 -1.900403 -0.145523 3.203562 -2.037909 0.000000 0.000000 0.000000 1.468197 2.515113 -0.760802 0.411550 2.263980 -1.458578 0.035986 -2.809179 -0.758534 0.000000 0.000000 0.000000 0.478021 -1.595710 -0.485936 0.308424 2.526953 0.680461 0.431147 -1.358779 0.006527 0.000000 0.000000 0.000000 -5.321599 -3.154522 1.216567 -5.203841 -0.515250 -0.549464 -5.098394 1.151083 -2.826296 0.000000 0.000000 0.000000 
557.469849 -87.523529 1066.234985 3.429231 0.513782 1.401217 0.197785 -4.841456 1.875769 -0.130776 0.900557 -0.380719 -0.003458 -0.993989 0.275897 -2.299603 7.419337 4.102545 0.000000 0.000000 0.000000 -5.571609 0.555203 0.827944 0.254162 0.005853 -1.889134 -0.145601 3.183841 -2.044989 0.000000 0.000000 0.000000 1.466330 2.519301 -0.783602 0.409838 2.269140 -1.455979 0.036740 -2.782502 -0.741944 0.000000 0.000000 0.000000 0.479859 -1.601894 -0.491018 0.308103 2.543490 0.695489 0.432442 -1.382659 0.003674 0.000000 0.000000 0.000000 -5.322798 -3.154441 1.225151 -5.203386 -0.511043 -0.557221 -5.098399 1.145296 -2.824448 0.000000 0.000000 0.000000 
557.622620 -87.615715 1066.218018 3.428582 0.519794 1.403132 0.195610 -4.849666 1.889555 -0.133745 0.903336 -0.384068 -0.005932 -0.995920 0.277588 -2.298305 7.404227 4.108604 0.000000 0.000000 0.000000 -5.570509 0.566291 0.837901 0.249444 0.017347 -1.879909 -0.145511 3.164003 -2.048496 0.000000 0.000000 0.000000 1.463215 2.521520 -0.809228 0.408245 2.272917 -1.448857 0.037515 -2.755468 -0.725023 0.000000 0.000000 0.000000 0.481344 -1.609348 -0.495144 0.307540 2.564128 0.709367 0.433637 -1.408084 0.000549 0.000000 0.000000 0.000000 -5.324264 -3.155012 1.233881 -5.203247 -0.504011 -0.565002 -5.098673 1.139569 -2.822750 0.000000 0.000000 0.000000 
557.762695 -87.718010 1066.197998 3.428328 0.523374 1.405702 0.194233 -4.845545 1.901654 -0.135110 0.902630 -0.386678 -0.007170 -0.994909 0.279386 -2.296293 7.389859 4.111183 0.000000 0.000000 0.000000 -5.576138 0.573895 0.850847 0.246320 0.024476 -1.876074 -0.145128 3.144389 -2.045514 0.000000 0.000000 0.000000 1.455371 2.520036 -0.836802 0.407680 2.274436 -1.437637 0.038596 -2.737384 -0.708083 0.000000 0.000000 0.000000 0.482163 -1.615902 -0.497022 0.306880 2.586505 0.719096 0.434654 -1.432897 -0.002570 0.000000 0.000000 0.000000 -5.325517 -3.155609 1.242264 -5.202975 -0.494081 -0.572779 -5.098763 1.135441 -2.821486 0.000000 0.000000 0.000000 
557.894104 -87.828705 1066.176025 3.429410 0.524688 1.408516 0.192724 -4.832256 1.913379 -0.136021 0.899328 -0.388767 -0.008322 -0.990559 0.280411 -2.293256 7.373922 4.110852 0.000000 0.000000 0.000000 -5.585944 0.579358 0.866587 0.244395 0.028866 -1.876034 -0.144498 3.125154 -2.037093 0.000000 0.000000 0.000000 1.444770 2.515687 -0.867625 0.407708 2.274156 -1.420630 0.039708 -2.723408 -0.692281 0.000000 0.000000 0.000000 0.482022 -1.621768 -0.496652 0.305743 2.611331 0.725457 0.435196 -1.458165 -0.005979 0.000000 0.000000 0.000000 -5.326905 -3.156375 1.250918 -5.202819 -0.480534 -0.581047 -5.098942 1.131629 -2.820368 0.000000 0.000000 0.000000 
558.019714 -87.935982 1066.154053 3.427850 0.526636 1.411941 0.192064 -4.818674 1.926507 -0.136042 0.895103 -0.390424 -0.008737 -0.985256 0.280543 -2.290096 7.359883 4.108600 0.000000 0.000000 0.000000 -5.595121 0.582390 0.881895 0.242984 0.030821 -1.877123 -0.144045 3.109493 -2.031301 0.000000 0.000000 0.000000 1.434647 2.508708 -0.898592 0.407054 2.270998 -1.404183 0.041070 -2.704352 -0.672090 0.000000 0.000000 0.000000 0.483324 -1.630968 -0.499051 0.305423 2.640115 0.734785 0.436784 -1.484626 -0.009069 0.000000 0.000000 0.000000 -5.327529 -3.156796 1.258276 -5.202093 -0.469195 -0.588272 -5.098527 1.129201 -2.819413 0.000000 0.000000 0.000000 
558.139221 -88.030792 1066.133057 3.420772 0.530905 1.416583 0.190966 -4.812119 1.943774 -0.137165 0.894680 -0.395320 -0.009590 -0.983221 0.284084 -2.286157 7.350210 4.100262 0.000000 0.000000 0.000000 -5.594579 0.582041 0.892260 0.241795 0.030330 -1.877565 -0.144111 3.101470 -2.034323 0.000000 0.000000 0.000000 1.434703 2.499857 -0.930553 0.404711 2.263432 -1.391291 0.042819 -2.672603 -0.643334 0.000000 0.000000 0.000000 0.487966 -1.646945 -0.508928 0.306786 2.674928 0.752881 0.440478 -1.511338 -0.011203 0.000000 0.000000 0.000000 -5.326200 -3.155795 1.263376 -5.199559 -0.464831 -0.594731 -5.096397 1.128530 -2.818195 0.000000 0.000000 0.000000 
558.253296 -88.118179 1066.110962 3.409506 0.536064 1.422443 0.189898 -4.807416 1.962975 -0.138351 0.893947 -0.399497 -0.010569 -0.981497 0.286775 -2.281846 7.343309 4.088545 0.000000 0.000000 0.000000 -5.588765 0.578719 0.900690 0.241013 0.027314 -1.878302 -0.144548 3.099574 -2.043423 0.000000 0.000000 0.000000 1.440753 2.488803 -0.961877 0.401135 2.252073 -1.380621 0.044863 -2.631885 -0.608248 0.000000 0.000000 0.000000 0.495122 -1.667824 -0.524529 0.309400 2.715877 0.777445 0.445841 -1.540031 -0.012838 0.000000 0.000000 0.000000 -5.323370 -3.152784 1.266118 -5.195755 -0.465820 -0.599801 -5.093015 1.129390 -2.816866 0.000000 0.000000 0.000000 
558.364380 -88.204361 1066.092041 3.397176 0.543223 1.427308 0.189317 -4.804741 1.983111 -0.139249 0.894340 -0.403716 -0.011154 -0.980850 0.289236 -2.278633 7.340032 4.078548 0.000000 0.000000 0.000000 -5.582635 0.573485 0.908566 0.240674 0.022382 -1.879464 -0.145004 3.099092 -2.052466 0.000000 0.000000 0.000000 1.447840 2.476542 -0.991066 0.396946 2.238959 -1.373102 0.046990 -2.588248 -0.571105 0.000000 0.000000 0.000000 0.502645 -1.689542 -0.538699 0.312637 2.753491 0.800976 0.451625 -1.566478 -0.013949 0.000000 0.000000 0.000000 -5.320253 -3.152373 1.270247 -5.191590 -0.466229 -0.605126 -5.089282 1.131486 -2.815770 0.000000 0.000000 0.000000 
558.476074 -88.296600 1066.077026 3.385814 0.552700 1.429989 0.190999 -4.801449 2.001625 -0.137745 0.892833 -0.406689 -0.009614 -0.979100 0.290399 -2.278190 7.339697 4.077151 0.000000 0.000000 0.000000 -5.586258 0.566225 0.916780 0.241093 0.014547 -1.880408 -0.145211 3.097428 -2.056588 0.000000 0.000000 0.000000 1.447279 2.463078 -1.013714 0.392626 2.225634 -1.373047 0.049400 -2.547274 -0.531867 0.000000 0.000000 0.000000 0.509322 -1.708043 -0.546579 0.316396 2.780427 0.817849 0.457271 -1.588144 -0.014432 0.000000 0.000000 0.000000 -5.317358 -3.157059 1.277681 -5.187463 -0.462023 -0.611341 -5.085575 1.133602 -2.814696 0.000000 0.000000 0.000000 
